<svg id="Layer_5" enable-background="new 0 0 64 64" height="512" viewBox="0 0 64 64" width="512" xmlns="http://www.w3.org/2000/svg"><g><g><g><path d="m56 8v6h-6v-6h4z" fill="#dfb28b"/></g><g><path d="m50 18h6v6h-6z" fill="#dfb28b"/></g><g><path d="m56 28v6h-6v-4-2z" fill="#dfb28b"/></g><g><path d="m50 38h6v6h-6z" fill="#dfb28b"/></g><g><path d="m50 48h6v6h-6z" fill="#dfb28b"/></g><g><path d="m50 58h6v4h-6z" fill="#dfb28b"/></g><g><path d="m18 58h6v4h-6z" fill="#dfb28b"/></g><g><path d="m18 48h6v6h-6z" fill="#dfb28b"/></g><g><path d="m18 38h6v6h-6z" fill="#dfb28b"/></g><g><path d="m24 28v6h-6v-4-2z" fill="#dfb28b"/></g><g><path d="m18 18h6v6h-6z" fill="#dfb28b"/></g><g><path d="m24 8v6h-6v-6h4z" fill="#dfb28b"/></g><g><path d="m34 30h16v6h-16z" fill="#b27946"/></g><g><path d="m18 34v2h-16v-6h16z" fill="#b27946"/></g><g><path d="m2 14h4v6h-4z" fill="#aab2bd"/></g><g><path d="m30 14h8v6h-8z" fill="#aab2bd"/></g><g><path d="m62 12v50h-6v-4-4-6-4-6-4-6-4-6-4-6h2c2.21 0 4 1.79 4 4z" fill="#ccd1d9"/></g><g><path d="m50 58v4h-12v-26h4 4 4v2 6 4 6z" fill="#ccd1d9"/></g><g><path d="m50 28v2h-4-4-4v-10-6-2c0-2.21 1.79-4 4-4h4 4v6 4 6z" fill="#ccd1d9"/></g><g><path d="m30 20v42h-6v-4-4-6-4-6-4-6-4-6-4-6h2c2.21 0 4 1.79 4 4v2z" fill="#ccd1d9"/></g><g><path d="m18 58v4h-12v-26h4 4 4v2 6 4 6z" fill="#ccd1d9"/></g><g><path d="m18 28v2h-4-4-4v-10-6-2c0-2.21 1.79-4 4-4h4 4v6 4 6z" fill="#ccd1d9"/></g><g><path d="m42 2h16v6h-16z" fill="#d3a06c"/></g><g><path d="m10 2h16v6h-16z" fill="#d3a06c"/></g><g><path d="m50 54h6v4h-6z" fill="#cf9e76"/></g><g><path d="m50 44h6v4h-6z" fill="#cf9e76"/></g><g><path d="m56 34v4h-6v-2-2z" fill="#cf9e76"/></g><g><path d="m50 24h6v4h-6z" fill="#cf9e76"/></g><g><path d="m50 14h6v4h-6z" fill="#cf9e76"/></g><g><path d="m18 54h6v4h-6z" fill="#cf9e76"/></g><g><path d="m18 44h6v4h-6z" fill="#cf9e76"/></g><g><path d="m24 34v4h-6v-2-2z" fill="#cf9e76"/></g><g><path d="m18 24h6v4h-6z" fill="#cf9e76"/></g><g><path d="m18 14h6v4h-6z" fill="#cf9e76"/></g></g><g><path d="m59 7.101v-4.101h2v-2h-22v2h2v4.101c-2.279.465-4 2.485-4 4.899v1h-6v-1c0-2.414-1.721-4.434-4-4.899v-4.101h2v-2h-22v2h2v4.101c-2.279.465-4 2.485-4 4.899v1h-4v8h4v8h-4v8h4v26h58v-51c0-2.414-1.721-4.434-4-4.899zm-52 27.899v-4h2v4zm4-4h2v4h-2zm4 0h2v4h-2zm4-24v-4h2v4zm-2 0h-2v-4h2zm6 50h-4v-2h4zm0-4h-4v-4h4zm0-6h-4v-2h4zm0-4h-4v-4h4zm0-6h-4v-2h4zm0-4h-4v-4h4zm0-6h-4v-2h4zm0-4h-4v-4h4zm0-6h-4v-2h4zm-4 42h4v2h-4zm4-46h-4v-4h4zm2-6h-2v-4h2zm-12-4v4h-2v-4zm-10 16v-4h2v4zm4-7c0-1.654 1.346-3 3-3h7v20h-10zm-4 23v-4h2v4zm4 2h10v24h-10zm22 24h-4v-52h1c1.654 0 3 1.346 3 3zm10-30h2v4h-2zm-2 4h-2v-4h2zm6-4h2v4h-2zm4 0h2v4h-2zm4-24v-4h2v4zm-2 0h-2v-4h2zm6 50h-4v-2h4zm0-4h-4v-4h4zm0-6h-4v-2h4zm0-4h-4v-4h4zm0-6h-4v-2h4zm0-4h-4v-4h4zm0-6h-4v-2h4zm0-4h-4v-4h4zm0-6h-4v-2h4zm-4 42h4v2h-4zm4-46h-4v-4h4zm2-6h-2v-4h2zm-12-4v4h-2v-4zm-3 6h7v20h-10v-17c0-1.654 1.346-3 3-3zm-5 6v4h-6v-4zm-6 46v-40h6v8h-4v8h4v24zm8-24h10v24h-10zm22 24h-4v-52h1c1.654 0 3 1.346 3 3z"/><path d="m41 49h2v2h-2z"/><path d="m41 53h2v2h-2z"/><path d="m41 57h2v2h-2z"/><path d="m9 49h2v2h-2z"/><path d="m9 53h2v2h-2z"/><path d="m9 57h2v2h-2z"/></g></g></svg>