<svg id="Layer_5" enable-background="new 0 0 64 64" height="512" viewBox="0 0 64 64" width="512" xmlns="http://www.w3.org/2000/svg"><g><g><g><path d="m44 22.27v1.73c0-.83-.34-1.58-.88-2.12s-1.29-.88-2.12-.88h-1v-3h4z" fill="#656d78"/></g><g><path d="m20 18h4v3h-1c-1.66 0-3 1.34-3 3v-1.73z" fill="#656d78"/></g><g><path d="m47.9 17.54 3.56 3.56c.62.63.77 1.58.36 2.36v.01c-.33.62-.29 1.37.07 1.98 1.02 1.75 1.81 3.65 2.34 5.65.18.69.68 1.24 1.36 1.46.84.26 1.41 1.04 1.41 1.92v5.04c0 .88-.57 1.66-1.41 1.92-.68.22-1.18.77-1.36 1.46-.53 2-1.32 3.9-2.34 5.65-.36.61-.4 1.36-.07 1.98v.01c.41.78.26 1.73-.36 2.36l-3.56 3.56c-.63.62-1.58.77-2.36.36h-.01c-.62-.33-1.37-.29-1.98.07-1.75 1.02-3.65 1.81-5.65 2.34-.69.18-1.24.68-1.46 1.36-.26.84-1.04 1.41-1.92 1.41h-5.04c-.88 0-1.66-.57-1.92-1.41-.22-.68-.77-1.18-1.46-1.36-2-.53-3.9-1.32-5.65-2.34-.61-.36-1.36-.4-1.98-.07h-.01c-.78.41-1.73.26-2.36-.36l-3.56-3.56c-.62-.63-.77-1.58-.36-2.36v-.01c.33-.62.29-1.37-.07-1.98-1.02-1.75-1.81-3.65-2.34-5.65-.18-.69-.68-1.24-1.36-1.46-.84-.26-1.41-1.04-1.41-1.92v-5.04c0-.88.57-1.66 1.41-1.92.68-.22 1.18-.77 1.36-1.46.53-2 1.32-3.9 2.34-5.65.36-.61.4-1.36.07-1.98v-.01c-.41-.78-.26-1.73.36-2.36l3.56-3.56c.6-.59 1.48-.75 2.24-.42.36.53.97.88 1.66.88v4.27c-4.27 3.48-7 8.79-7 14.73 0 3.67 1.05 7.11 2.86 10.02v.01c1.34 2.14 3.09 4 5.14 5.45v.01c3.1 2.21 6.9 3.51 11 3.51s7.9-1.3 11-3.51v-.01c2.05-1.45 3.8-3.31 5.14-5.45 0 0 0 0 0-.01 1.81-2.91 2.86-6.35 2.86-10.02 0-5.94-2.73-11.25-7-14.73v-4.27c.55 0 1.05-.22 1.41-.59.09-.09.18-.19.25-.29.75-.33 1.64-.17 2.24.42z" fill="#fcd770"/></g><g><path d="m32 50v6c-4.1 0-7.9-1.3-11-3.51v-.01-2.48z" fill="#a0d468"/></g><g><path d="m43 52.48v.01c-3.1 2.21-6.9 3.51-11 3.51v-6h11z" fill="#a0d468"/></g><g><path d="m33 44c1.48 0 2.77-.8 3.46-2h6.54v4h-11v-2z" fill="#a0d468"/></g><g><path d="m31 44h1v2h-11v-4h6.54c.69 1.2 1.98 2 3.46 2z" fill="#a0d468"/></g><g><path d="m21 46h11v4h-11z" fill="#b4dd7f"/></g><g><path d="m32 46h11v4h-11z" fill="#b4dd7f"/></g><g><path d="m43.01 39.49-.01.01v2.5h-6.54c.34-.59.54-1.27.54-2v-3.73c2.25.66 4.29 1.77 6.01 3.22z" fill="#b4dd7f"/></g><g><path d="m20.99 39.49c1.72-1.44 3.76-2.56 6.01-3.22v3.73c0 .73.2 1.41.54 2h-6.54v-2.5z" fill="#b4dd7f"/></g><g><path d="m43.57 39.98c2.08 1.92 3.66 4.33 4.57 7.04v.01c-1.34 2.14-3.09 4-5.14 5.45v-2.48-4-4-2.5l.01-.01c.19.16.38.32.56.49z" fill="#e6e9ed"/></g><g><path d="m32 41 4-5c.34.08.67.17 1 .27v3.73c0 .73-.2 1.41-.54 2-.69 1.2-1.98 2-3.46 2h-1-1c-1.48 0-2.77-.8-3.46-2-.34-.59-.54-1.27-.54-2v-3.73c.33-.1.66-.19 1-.27z" fill="#e6e9ed"/></g><g><path d="m15.86 47.02c.99-2.94 2.77-5.55 5.13-7.53l.01.01v2.5 4 4 2.48c-2.05-1.45-3.8-3.31-5.14-5.45 0 0 0 0 0-.01z" fill="#e6e9ed"/></g><g><path d="m44 24c0 1.66-1.34 3-3 3h-1v-6h1c.83 0 1.58.34 2.12.88s.88 1.29.88 2.12z" fill="#f0d0b4"/></g><g><path d="m35.4 33 .6 3-4 5-4-5 .6-3.02c.13.01.26.02.4.02h6c.14 0 .27-.01.4-.02z" fill="#f0d0b4"/></g><g><path d="m40 21v6 1c0 2.62-2.03 4.78-4.6 4.98-.13.01-.26.02-.4.02h-6c-.14 0-.27-.01-.4-.02-2.57-.2-4.6-2.36-4.6-4.98v-1-6-3h16z" fill="#f0d0b4"/></g><g><path d="m24 21v6h-1c-.83 0-1.58-.34-2.12-.88s-.88-1.29-.88-2.12c0-1.66 1.34-3 3-3z" fill="#f0d0b4"/></g><g><path d="m43.83 12c.11.65.17 1.32.17 2h-6-4v-11.82-.01c2.74.46 5.17 1.85 6.95 3.83 1.48 1.65 2.5 3.71 2.88 6z" fill="#ff826e"/></g><g><path d="m26 14h-6c0-.68.06-1.35.17-2 .38-2.29 1.4-4.35 2.88-6 .15-.17.3-.33.46-.49 1.72-1.72 3.97-2.92 6.49-3.34v.01 11.82z" fill="#ff826e"/></g><g><path d="m34 2.18v11.82h-4v-11.82-.01c.65-.11 1.32-.17 2-.17s1.35.06 2 .17z" fill="#fc6e51"/></g><g><path d="m18.34 17.12c-.22-.32-.34-.71-.34-1.12 0-.55.22-1.05.59-1.41.36-.37.86-.59 1.41-.59h6 4 4 4 6c1.1 0 2 .9 2 2 0 .41-.12.8-.34 1.12-.07.1-.16.2-.25.29-.36.37-.86.59-1.41.59h-4-16-4c-.69 0-1.3-.35-1.66-.88z" fill="#fc6e51"/></g><g><path d="m62 12v2c-1.27 1.3-3.04 2-5 2-2.15 0-4.07-.97-5.35-2.5-.78-.93-1.9-1.5-3.12-1.5h-4.7c-.38-2.29-1.4-4.35-2.88-6h7.58c1.22 0 2.34-.57 3.12-1.5 1.28-1.53 3.2-2.5 5.35-2.5 1.96 0 3.73.7 5 2v2h-3c-1.66 0-3 1.34-3 3s1.34 3 3 3z" fill="#e6e9ed"/></g><g><path d="m15.47 6h7.58c-1.48 1.65-2.5 3.71-2.88 6h-4.7c-1.22 0-2.34.57-3.12 1.5-1.28 1.53-3.2 2.5-5.35 2.5-1.96 0-3.73-.7-5-2v-2h6l-1-6h-5v-2c1.27-1.3 3.04-2 5-2 2.15 0 4.07.97 5.35 2.5.78.93 1.9 1.5 3.12 1.5z" fill="#e6e9ed"/></g></g><g><circle cx="28" cy="22" r="1"/><circle cx="36" cy="22" r="1"/><path d="m34 28h-6v2h6c1.654 0 3-1.346 3-3h-2c0 .551-.449 1-1 1z"/><path d="m59 7h4v-3.407l-.284-.292c-1.447-1.484-3.478-2.301-5.716-2.301-2.363 0-4.592 1.04-6.116 2.853-.612.729-1.469 1.147-2.352 1.147h-7.173c-2.367-2.46-5.684-4-9.359-4s-6.992 1.54-9.359 4h-7.173c-.883 0-1.74-.418-2.353-1.147-1.523-1.813-3.752-2.853-6.115-2.853-2.239 0-4.269.817-5.716 2.302l-.284.291v3.407h5.153l.667 4h-5.82v3.407l.284.292c1.447 1.484 3.477 2.301 5.716 2.301 2.363 0 4.592-1.04 6.116-2.853.612-.729 1.469-1.147 2.352-1.147h3.582c-.004.057-.005.114-.009.171-1.182.402-2.041 1.512-2.041 2.829v.001c-.596.107-1.16.388-1.603.832l-3.564 3.564c-.936.936-1.153 2.354-.538 3.532.162.31.144.691-.048 1.021-1.078 1.851-1.901 3.835-2.447 5.897-.098.369-.354.651-.687.756-1.264.397-2.113 1.553-2.113 2.877v5.04c0 1.324.849 2.48 2.112 2.877.333.104.59.387.688.755.546 2.062 1.369 4.046 2.447 5.897.192.329.21.711.046 1.025-.613 1.174-.396 2.592.54 3.528l3.564 3.564c.936.937 2.354 1.154 3.532.538.312-.161.692-.143 1.021.048 1.851 1.078 3.835 1.901 5.897 2.447.369.098.651.354.756.687.397 1.265 1.553 2.114 2.877 2.114h5.04c1.324 0 2.48-.849 2.877-2.112.104-.333.387-.59.755-.688 2.062-.546 4.046-1.369 5.897-2.447.33-.191.711-.209 1.025-.046 1.174.614 2.591.396 3.528-.54l3.564-3.564c.936-.936 1.153-2.354.538-3.532-.162-.31-.144-.692.048-1.021 1.078-1.851 1.901-3.835 2.447-5.897.098-.369.354-.651.687-.756 1.265-.397 2.114-1.553 2.114-2.877v-5.04c0-1.324-.849-2.48-2.112-2.877-.333-.104-.59-.387-.688-.755-.546-2.062-1.369-4.046-2.447-5.897-.192-.33-.21-.712-.046-1.025.613-1.174.396-2.592-.54-3.528l-3.564-3.564c-.443-.444-1.008-.725-1.603-.832 0-.001 0-.002 0-.002 0-1.317-.859-2.427-2.042-2.829-.004-.057-.004-.115-.009-.171h3.582c.883 0 1.74.418 2.353 1.147 1.524 1.813 3.753 2.853 6.116 2.853 2.238 0 4.269-.817 5.716-2.302l.284-.291v-3.407h-4c-1.103 0-2-.897-2-2s.897-2 2-2zm-16.051 6h-3.949v-4h-2v4h-2v-9.574c4.3 1.223 7.534 4.993 7.949 9.574zm-9.949-9.949v9.949h-2v-9.949c.33-.03.662-.051 1-.051s.67.021 1 .051zm-4 .375v9.574h-2v-4h-2v4h-3.949c.415-4.581 3.649-8.351 7.949-9.574zm-13.532 7.574c-1.475 0-2.891.678-3.884 1.86-1.142 1.36-2.813 2.14-4.584 2.14-1.55 0-2.955-.504-4-1.428v-.572h6.181l-1.334-8h-4.847v-.572c1.045-.924 2.45-1.428 4-1.428 1.771 0 3.442.78 4.584 2.14.994 1.182 2.41 1.86 3.884 1.86h5.595c-.778 1.212-1.357 2.559-1.7 4zm4.532 4h24c.551 0 1 .449 1 1s-.449 1-1 1h-24c-.551 0-1-.449-1-1s.449-1 1-1zm21 7c1.103 0 2 .897 2 2s-.897 2-2 2zm2-1.444c-.591-.344-1.268-.556-2-.556v-1h2zm-8.42 13.444.348 1.739-2.928 3.66-2.928-3.66.348-1.739zm7.42 11h-9c1.627 0 3.061-.793 3.974-2h5.026zm-20-2h5.026c.914 1.207 2.348 2 3.974 2h-9zm9 0c-1.654 0-3-1.346-3-3v-2.4l4 5 4-5v2.4c0 1.654-1.346 3-3 3zm-4.899-2h-4.101v-1.018c1.207-.956 2.555-1.734 4-2.307v2.325c0 .342.035.677.101 1zm-4.101 6h9v2h-9zm11 0h9v2h-9zm9-6h-4.101c.066-.323.101-.658.101-1v-2.325c1.445.573 2.793 1.351 4 2.307zm-7-9h-6c-2.206 0-4-1.794-4-4v-9h14v9c0 2.206-1.794 4-4 4zm-12-6c-1.103 0-2-.897-2-2s.897-2 2-2zm0-6c-.732 0-1.409.212-2 .556v-1.556h2zm-3.949 4.505c.252 1.965 1.916 3.495 3.949 3.495 0 2.762 1.879 5.088 4.424 5.783l-.28 1.401c-4.99 1.35-9.176 4.863-11.402 9.488-1.105-2.331-1.742-4.925-1.742-7.672 0-4.709 1.822-9.154 5.051-12.495zm.949 17.369v8.504c-1.147-1.03-2.169-2.195-3.021-3.485.688-1.865 1.721-3.563 3.021-5.019zm2 9.126h9v3.949c-3.316-.184-6.399-1.248-9-2.993zm11 0h9v.956c-2.601 1.745-5.684 2.809-9 2.993zm11-9.126c1.3 1.457 2.333 3.154 3.021 5.019-.853 1.291-1.874 2.455-3.021 3.485zm4.259 2.798c-2.226-4.625-6.412-8.138-11.402-9.488l-.28-1.401c2.544-.695 4.423-3.021 4.423-5.783 2.033 0 3.697-1.53 3.949-3.495 3.229 3.341 5.051 7.786 5.051 12.495 0 2.747-.636 5.341-1.741 7.672zm-1.071-26.425 3.564 3.564c.315.315.388.792.18 1.192-.482.922-.447 2.026.092 2.954.988 1.696 1.742 3.514 2.242 5.403.275 1.036 1.03 1.84 2.022 2.151.426.134.712.523.712.969v5.04c0 .446-.286.835-.712.969-.991.312-1.747 1.116-2.021 2.152-.5 1.889-1.254 3.707-2.242 5.402-.54.927-.574 2.031-.09 2.958.207.396.133.873-.182 1.188l-3.564 3.564c-.316.315-.792.387-1.192.18-.921-.482-2.025-.448-2.954.092-1.696.988-3.514 1.742-5.403 2.242-1.036.275-1.84 1.03-2.151 2.022-.134.425-.523.711-.969.711h-5.04c-.446 0-.835-.286-.969-.712-.312-.991-1.116-1.747-2.152-2.021-1.889-.5-3.707-1.254-5.403-2.242-.926-.539-2.031-.573-2.957-.09-.396.206-.873.133-1.188-.182l-3.564-3.564c-.315-.315-.388-.792-.18-1.192.482-.923.447-2.027-.092-2.954-.988-1.696-1.742-3.514-2.242-5.403-.275-1.036-1.03-1.84-2.022-2.151-.425-.134-.711-.523-.711-.969v-5.04c0-.446.286-.835.712-.969.991-.312 1.747-1.116 2.021-2.152.5-1.889 1.254-3.707 2.242-5.403.54-.927.574-2.031.09-2.957-.207-.396-.133-.873.182-1.188l3.564-3.564c.253-.254.621-.34.962-.256.331.37.75.654 1.227.824v2.996c-4.451 3.811-7 9.315-7 15.189 0 11.028 8.972 20 20 20s20-8.972 20-20c0-5.874-2.549-11.378-7-15.189v-2.995c.477-.17.895-.454 1.226-.824.341-.084.709.002.962.255zm11.812-5.247h2v.572c-1.045.924-2.451 1.428-4 1.428-1.771 0-3.442-.78-4.584-2.14-.994-1.182-2.41-1.86-3.884-1.86h-3.895c-.342-1.441-.921-2.788-1.7-4h5.595c1.475 0 2.891-.678 3.884-1.86 1.142-1.36 2.813-2.14 4.584-2.14 1.549 0 2.955.504 4 1.428v.572h-2c-2.206 0-4 1.794-4 4s1.794 4 4 4z"/></g></g></svg>