<svg id="Layer_5" enable-background="new 0 0 64 64" height="512" viewBox="0 0 64 64" width="512" xmlns="http://www.w3.org/2000/svg"><g><g><g><path d="m57 27.56-6.12-2.73-10.88-4.83v6l-16-6v6l-10.47-3.49-3.81-1.27-3.72-1.24v22h52v-14z" fill="#e6e9ed"/></g><g><path d="m42 30h12v12h-12z" fill="#d3a06c"/></g><g><path d="m26 30h12v12h-12z" fill="#d3a06c"/></g><g><path d="m10 30h12v12h-12z" fill="#d3a06c"/></g><g><path d="m52 50h6v12h-6z" fill="#aab2bd"/></g><g><path d="m29 50h6v12h-6z" fill="#aab2bd"/></g><g><path d="m6 50h6v12h-6z" fill="#aab2bd"/></g><g><path d="m51.82 13.47c-.33.62-.29 1.37.07 1.98 1.02 1.75 1.81 3.65 2.34 5.65.18.69.68 1.24 1.36 1.46.84.26 1.41 1.04 1.41 1.92v3.08l-6.12-2.73c-1.08-9.47-9.12-16.83-18.88-16.83-8.95 0-16.45 6.18-18.47 14.51l-3.81-1.27c.02-.04.03-.09.05-.14.53-2 1.32-3.9 2.34-5.65.36-.61.4-1.36.07-1.98v-.01c-.41-.78-.26-1.73.36-2.36l3.56-3.56c.63-.62 1.58-.77 2.36-.36h.01c.62.33 1.37.29 1.98-.07 1.75-1.02 3.65-1.81 5.65-2.34.69-.18 1.24-.68 1.46-1.36.26-.84 1.04-1.41 1.92-1.41h5.04c.88 0 1.66.57 1.92 1.41.22.68.77 1.18 1.46 1.36 2 .53 3.9 1.32 5.65 2.34.61.36 1.36.4 1.98.07h.01c.78-.41 1.73-.26 2.36.36l3.56 3.56c.62.63.77 1.58.36 2.36z" fill="#fcd770"/></g><g><path d="m46 30h4v4h-4z" fill="#b27946"/></g><g><path d="m30 30h4v4h-4z" fill="#b27946"/></g><g><path d="m14 30h4v4h-4z" fill="#b27946"/></g><g><path d="m54 42h4c2.21 0 4 1.79 4 4 0 1.1-.45 2.1-1.17 2.83-.73.72-1.73 1.17-2.83 1.17h-6-2c2.21 0 4-1.79 4-4s-1.79-4-4-4z" fill="#ccd1d9"/></g><g><path d="m42 42h8c-2.21 0-4 1.79-4 4s1.79 4 4 4h-12c2.21 0 4-1.79 4-4s-1.79-4-4-4z" fill="#ccd1d9"/></g><g><path d="m34 46c0 2.21 1.79 4 4 4h-3-6-3c2.21 0 4-1.79 4-4s-1.79-4-4-4h12c-2.21 0-4 1.79-4 4z" fill="#ccd1d9"/></g><g><path d="m26 42c-2.21 0-4 1.79-4 4s1.79 4 4 4h-12c2.21 0 4-1.79 4-4s-1.79-4-4-4h8z" fill="#ccd1d9"/></g><g><path d="m10 46c0 2.21 1.79 4 4 4h-2-6c-2.21 0-4-1.79-4-4 0-1.1.45-2.1 1.17-2.83.73-.72 1.73-1.17 2.83-1.17h4 4c-2.21 0-4 1.79-4 4z" fill="#ccd1d9"/></g><g><circle cx="50" cy="46" fill="#969faa" r="4"/></g><g><circle cx="38" cy="46" fill="#969faa" r="4"/></g><g><circle cx="26" cy="46" fill="#969faa" r="4"/></g><g><circle cx="14" cy="46" fill="#969faa" r="4"/></g></g><path d="m59 41.101v-13.751l-1-.444v-2.426c0-1.324-.849-2.48-2.112-2.877-.333-.104-.59-.387-.688-.755-.546-2.062-1.369-4.046-2.447-5.897-.192-.33-.21-.712-.046-1.025.613-1.174.396-2.592-.54-3.528l-3.564-3.564c-.937-.937-2.355-1.153-3.532-.538-.31.162-.691.144-1.021-.048-1.851-1.078-3.835-1.901-5.897-2.447-.369-.098-.651-.354-.756-.687-.397-1.265-1.553-2.114-2.877-2.114h-5.04c-1.324 0-2.48.849-2.877 2.112-.104.333-.387.59-.755.688-2.062.546-4.046 1.369-5.897 2.447-.33.192-.712.209-1.025.046-1.173-.613-2.592-.396-3.528.54l-3.564 3.564c-.936.936-1.153 2.354-.538 3.532.162.31.144.691-.048 1.021-.914 1.57-1.634 3.242-2.182 5.018l-4.066-1.355v22.488c-2.279.465-4 2.485-4 4.899s1.721 4.434 4 4.899v12.101h54v-12.101c2.279-.465 4-2.484 4-4.899s-1.721-4.434-4-4.899zm-46.025-25.144c.54-.927.574-2.031.09-2.957-.207-.396-.133-.873.182-1.188l3.564-3.564c.316-.314.793-.387 1.192-.18.923.482 2.025.448 2.954-.092 1.696-.988 3.514-1.742 5.403-2.242 1.036-.275 1.84-1.03 2.151-2.022.134-.426.523-.712.969-.712h5.04c.446 0 .835.286.969.712.312.991 1.116 1.747 2.152 2.021 1.889.5 3.707 1.254 5.403 2.242.926.54 2.032.575 2.956.09.395-.207.872-.134 1.188.182l3.564 3.564c.315.315.388.792.18 1.192-.482.922-.447 2.026.092 2.954.988 1.696 1.742 3.514 2.242 5.403.275 1.036 1.03 1.84 2.022 2.151.426.134.712.523.712.969v1.537l-4.222-1.876c-1.404-9.81-9.794-17.141-19.778-17.141-8.901 0-16.613 5.804-19.139 14.233l-1.899-.633c.491-1.616 1.159-3.177 2.013-4.643zm36.613 7.21-10.588-4.706v6.096l-16-6v6.056l-8.242-2.747c2.256-7.616 9.21-12.866 17.242-12.866 8.555 0 15.82 5.977 17.588 14.167zm-42.588-1.78 18 6v-5.944l16 6v-5.904l16 7.111v12.35h-2v-12h-14v12h-2v-12h-14v12h-2v-12h-14v12h-2zm39.026 27.613h-4.051c.634-.838 1.025-1.87 1.025-3s-.391-2.162-1.026-3h4.051c-.634.838-1.025 1.87-1.025 3s.391 2.162 1.026 3zm-3.026-8v-10h2v4h6v-4h2v10zm4-8v-2h2v2zm-12 2v-4h2v10h-10v-10h2v4zm-4-2v-2h2v2zm-8.974 16h-4.051c.634-.838 1.025-1.87 1.025-3s-.391-2.162-1.026-3h4.051c-.634.838-1.025 1.87-1.025 3s.391 2.162 1.026 3zm-3.026-14v-4h2v10h-10v-10h2v4zm-4-2v-2h2v2zm-12 13c0-1.654 1.346-3 3-3h4.026c-.635.838-1.026 1.87-1.026 3s.391 2.162 1.026 3h-4.026c-1.654 0-3-1.346-3-3zm8 15h-4v-10h4zm0-15c0-1.654 1.346-3 3-3s3 1.346 3 3-1.346 3-3 3-3-1.346-3-3zm17 15h-15v-10h15zm-2-12c-1.654 0-3-1.346-3-3s1.346-3 3-3 3 1.346 3 3-1.346 3-3 3zm8 12h-4v-10h4zm.026-12h-4.051c.634-.838 1.025-1.87 1.025-3s-.391-2.162-1.026-3h4.051c-.634.838-1.025 1.87-1.025 3s.391 2.162 1.026 3zm.974-3c0-1.654 1.346-3 3-3s3 1.346 3 3-1.346 3-3 3-3-1.346-3-3zm16 15h-15v-10h15zm-1-12c-1.654 0-3-1.346-3-3s1.346-3 3-3 3 1.346 3 3-1.346 3-3 3zm7 12h-4v-10h4zm1-12h-4.026c.635-.838 1.026-1.87 1.026-3s-.391-2.162-1.026-3h4.026c1.654 0 3 1.346 3 3s-1.346 3-3 3z"/></g></svg>