<svg id="Layer_5" enable-background="new 0 0 64 64" height="512" viewBox="0 0 64 64" width="512" xmlns="http://www.w3.org/2000/svg"><g><g><g><path d="m11 62h-9v-12.01l14 .01 4 12z" fill="#969faa"/></g><g><path d="m18.27 38.68-2.27 11.32-14-.01v-5.8c0-3.45.42-6.88 1.26-10.23.51-2.04 1.68-3.78 3.26-5.01 1.02-.79 2.2-1.37 3.48-1.69.7-.17 1.43-.26 2.18-.26 1.33 0 2.63.28 3.82.79.16.07.33.15.49.23 1.32.66 2.49 1.62 3.4 2.84 2.04 2.71 4.74 4.86 7.84 6.24l.52.23c1.83.81 3.77 1.34 5.75 1.55v4.04c-7.6-.38-12.47-2.2-15.73-4.24z" fill="#b4dd7f"/></g><g><path d="m60 47v16h-26v-16z" fill="#b27946"/></g><g><path d="m62 43v4h-2-26-2v-4h2 3 3 20z" fill="#cf9e76"/></g><g><path d="m38 51h18v8h-18z" fill="#ccd1d9"/></g><g><path d="m56 28v7c0 1.1-.9 2-2 2h-2c-1.1 0-2-.9-2-2v-14c0-1.1.9-2 2-2h2c1.1 0 2 .9 2 2z" fill="#ccd1d9"/></g><g><path d="m21 8h-5.76c-.76 0-1.45.43-1.79 1.11l-1.45 2.89h-2-6v-4c0-1.54.58-2.94 1.53-4 1.1-1.23 2.7-2 4.47-2h5c1.77 0 3.37.77 4.47 2 .95 1.06 1.53 2.46 1.53 4z" fill="#ff826e"/></g><g><path d="m24 8c1.1 0 2 .9 2 2 0 .55-.22 1.05-.59 1.41-.36.37-.86.59-1.41.59h-3-9l1.45-2.89c.34-.68 1.03-1.11 1.79-1.11h5.76z" fill="#fc6e51"/></g><g><path d="m10 19v5c-3.58-1.19-6-4.55-6-8.32v-3.68h6c-1.23.61-2 1.87-2 3.24v.26c0 .96.38 1.88 1.06 2.56z" fill="#656d78"/></g><g><path d="m36.2 39c2.11 0 3.8 1.7 3.8 3.78v.22h-3c-1.05 0-2.05-.03-3-.08v-4.04c.7.08 1.4.12 2.1.12z" fill="#f0d0b4"/></g><g><path d="m16 24v3.79c-1.19-.51-2.49-.79-3.82-.79-.75 0-1.48.09-2.18.26v-3.26-5l-.94-.94c-.68-.68-1.06-1.6-1.06-2.56v-.26c0-1.37.77-2.63 2-3.24h2 9v1.51c0 .32.08.64.22.93l.56 1.12c.14.29.22.61.22.93 0 .9-.58 1.7-1.43 1.99l-1.57.52v1.59c0 .9-.36 1.77-1 2.41-.54.54-1.25.88-2 .97z" fill="#f0d0b4"/></g><g><path d="m39 13v.06c-.03 1.63-1.36 2.94-3 2.94s-2.97-1.31-3-2.94c0-.02 0-.04 0-.06 0-1.66 1.34-3 3-3s3 1.34 3 3z" fill="#fcd770"/></g><g><path d="m30 22h12v12h-12z" fill="#d3a06c"/></g><g><path d="m38 22v4h-4v-4h2z" fill="#b27946"/></g></g><g><path d="m63 5v-2h-43.115c-1.262-1.234-2.984-2-4.885-2h-5c-1.902 0-3.627.765-4.89 2h-4.11v2h2.685c-.435.911-.685 1.925-.685 3v4 1 2.676c0 3.969 2.383 7.503 6 9.014v1.82c-3.26 1.067-5.842 3.735-6.711 7.209-.855 3.423-1.289 6.946-1.289 10.473v4.794 1.001 13.013h20.387l-4.354-13.064 1.946-9.707c2.846 1.538 6.701 2.874 12.022 3.457v4.314h2v15h2v-15h24v15h2v-15h2v-6h-2v-12c0-1.654-1.346-3-3-3h-1v-6c0-1.654-1.346-3-3-3h-2c-1.654 0-3 1.346-3 3v14c0 1.654 1.346 3 3 3h2c1.654 0 3-1.346 3-3v-6h1c.551 0 1 .449 1 1v12h-18.081c-.379-2.264-2.352-4-4.817-4-2.582 0-5.087-.532-7.447-1.581l-.518-.23c-2.941-1.307-5.516-3.357-7.446-5.932-.984-1.313-2.258-2.361-3.693-3.091v-2.416c.634-.215 1.22-.556 1.707-1.043.835-.832 1.294-1.941 1.294-3.121v-.865l.887-.296c1.264-.421 2.113-1.598 2.113-2.931 0-.478-.113-.956-.326-1.382l-.559-1.117c-.075-.15-.115-.319-.115-.487v-.508h2c1.654 0 3-1.346 3-3s-1.346-3-3-3h-2.071c-.102-.707-.315-1.377-.612-2h13.683v4.142c-1.469.382-2.617 1.566-2.92 3.065-4.088.888-7.08 4.534-7.08 8.793 0 2.414 1.721 4.434 4 4.899v9.101h14v-9.101c2.279-.465 4-2.484 4-4.899 0-4.259-2.992-7.905-7.08-8.793-.303-1.499-1.451-2.683-2.92-3.065v-4.142zm-8 30c0 .551-.449 1-1 1h-2c-.551 0-1-.449-1-1v-14c0-.551.449-1 1-1h2c.551 0 1 .449 1 1zm-28-14c0-3.211 2.188-5.967 5.216-6.763.422 1.285 1.466 2.279 2.784 2.621v4.142h-6v2.816c-1.161-.414-2-1.514-2-2.816zm8 2h2v2h-2zm6 10h-10v-10h2v4h6v-4h2zm-1.216-18.763c3.028.795 5.216 3.552 5.216 6.763 0 1.302-.839 2.402-2 2.816v-2.816h-6v-4.142c1.318-.343 2.363-1.336 2.784-2.621zm-1.784-1.237c0 1.103-.897 2-2 2s-2-.897-2-2 .897-2 2-2 2 .897 2 2zm-28-10h5c2.415 0 4.435 1.721 4.899 4h-4.664c-1.143 0-2.171.635-2.683 1.658l-1.17 2.342h-6.382v-3c0-2.757 2.243-5 5-5zm-5 12.676v-2.676h2.585c-.372.671-.585 1.433-.585 2.237v.265c0 1.233.48 2.393 1.353 3.266l.647.648v3.043c-2.435-1.353-4-3.921-4-6.783zm13.613 45.324h-6.832l-.811-3.243-1.94.485.689 2.758h-6.719v-10.012l12.279.012zm42.387-15h-28v-2h28zm-24.797-6c1.267 0 2.327.848 2.67 2h-1.873c-.689 0-1.351-.015-2-.036v-2.024c.4.022.796.06 1.203.06zm-17.11-8.542c2.134 2.846 4.981 5.114 8.233 6.56l.518.23c1.65.733 3.372 1.211 5.156 1.484v2.133c-12.492-.873-16.888-5.793-19.353-8.554-.348-.39-.657-.735-.94-1.018l-1.414 1.414c.26.26.542.578.862.936 1.06 1.187 2.573 2.876 5.002 4.493l-1.977 9.862-12.18-.01v-4.796c0-3.364.414-6.724 1.229-9.987.914-3.653 4.182-6.205 7.949-6.205 2.706 0 5.291 1.292 6.915 3.458zm1.233-16.568.559 1.117c.075.15.115.319.115.487 0 .47-.299.885-.746 1.034l-2.254.752v2.307c0 .645-.251 1.251-.707 1.708s-1.063.707-1.708.707h-2.585v2h2v1.4c-.914-.255-1.86-.402-2.823-.402-.398 0-.789.031-1.177.076v-7.489l-1.233-1.232c-.495-.496-.767-1.153-.767-1.853v-.265c0-.935.499-1.767 1.294-2.237h9.706v.508c0 .477.113.955.326 1.382zm3.674-5.89c.551 0 1 .449 1 1s-.449 1-1 1h-10.382l.724-1.447c.17-.341.513-.553.894-.553z"/><path d="m37 60h20v-10h-20zm2-8h16v6h-16z"/></g></g></svg>