<svg id="Layer_5" enable-background="new 0 0 64 64" height="512" viewBox="0 0 64 64" width="512" xmlns="http://www.w3.org/2000/svg"><g><g><g><path d="m50 16h8v4h-8z" fill="#cf9e76"/></g><g><path d="m50 20h8v12h-8z" fill="#dfb28b"/></g><g><path d="m42 28v4h-8v-4h2z" fill="#aab2bd"/></g><g><path d="m22 20h14v8h-2v4h-2v4 8h-2v4h-4v-4h-6v-4-4-4-4-4-4z" fill="#ecc19c"/></g><g><path d="m14 20v4 4 4 4 4 4h-4v-24h2z" fill="#ecc19c"/></g><g><path d="m21 12 1 8h-2-6-2l1-8z" fill="#ccd1d9"/></g><g><path d="m14 20h6v24h-6z" fill="#cf9e76"/></g><g><path d="m60 32v4h-28v-4h2 8 8 8z" fill="#ccd1d9"/></g><g><path d="m32 36h28v8h-28z" fill="#e6e9ed"/></g><g><path d="m52 40h4v4h-4z" fill="#aab2bd"/></g><g><path d="m44 40h4v4h-4z" fill="#aab2bd"/></g><g><path d="m36 40h4v4h-4z" fill="#aab2bd"/></g><g><path d="m26 44v4h-22v-4h6 4 6z" fill="#ccd1d9"/></g><g><path d="m26 48h-22-2v14h28v-12-2z" fill="#e6e9ed"/></g><g><path d="m22 52h4v10h-4z" fill="#69d6f4"/></g><g><path d="m14 52h4v10h-4z" fill="#69d6f4"/></g><g><path d="m6 52h4v10h-4z" fill="#69d6f4"/></g><g><path d="m60 44h2v18h-4v-1-16-1z" fill="#ccd1d9"/></g><g><path d="m48 45v16 1h-4v-1-16-1h4z" fill="#ccd1d9"/></g><g><path d="m34 45v16 1h-4v-12-2-4h2 2z" fill="#ccd1d9"/></g></g><g><path d="m61 31h-2v-16h-10v16h-6v-4h-6v-8h-14.117l-1-8h-9.766l-1 8h-2.117v24h-6v4h-2v16h62v-20h-2zm-2 2v2h-26v-2zm-4 10h-2v-2h2zm1.821 2-3.821 6.114-3.821-6.114zm.179 12.514-2.821-4.514 2.821-4.514zm-8-9.028 2.821 4.514-2.821 4.514zm-2-5.486h-2v-2h2zm-4 14.514-2.821-4.514 2.821-4.514zm-4-6.4-3.821-6.114h7.642zm-4-2.628 2.821 4.514-2.821 4.514zm4-5.486h-2v-2h2zm0 11.886 3.821 6.114h-7.642zm6-9.886h2v16h-2zm8 9.886 3.821 6.114h-7.642zm4-11.886v-4h-6v4h-2v-4h-6v4h-2v-4h-6v4h-2v-6h26v6zm0-26v2h-6v-2zm-6 4h6v10h-6zm-10 10h-6v-2h6zm-26 12v-2h4v2zm4-4h-4v-2h4zm0-4h-4v-2h4zm0-4h-4v-2h4zm0-4h-4v-2h4zm0-4h-4v-2h4zm-5.117-10h6.234l.75 6h-7.735zm-2.883 8h2v22h-2zm14 24v2h-20v-2zm-16 16h-2v-8h2zm8 0h-2v-8h2zm8 0h-2v-8h2zm4 0h-2v-10h-6v10h-2v-10h-6v10h-2v-10h-6v10h-2v-12h1 1 20 1 3zm0-14h-2v-4h-6v-22h14v6h-2v4h-2v12h-2zm2-2h2v16h-2zm30 16h-2v-16h2z"/><path d="m20 8c0-.551.448-1 1-1h9c1.654 0 3-1.346 3-3s-1.346-3-3-3h-8v2h8c.552 0 1 .449 1 1s-.448 1-1 1h-9c-1.654 0-3 1.346-3 3v1h2z"/><path d="m7 7h6c.552 0 1 .449 1 1v1h2v-1c0-1.654-1.346-3-3-3h-6c-.552 0-1-.449-1-1s.448-1 1-1h9v-2h-9c-1.654 0-3 1.346-3 3s1.346 3 3 3z"/><path d="m56 4v1h3c1.103 0 2 .897 2 2s-.897 2-2 2h-1c-1.654 0-3 1.346-3 3v1h2v-1c0-.551.448-1 1-1h1c2.206 0 4-1.794 4-4s-1.794-4-4-4h-1.171c-.413-1.164-1.525-2-2.829-2h-4v2h4c.552 0 1 .449 1 1z"/><path d="m44 11h6c.552 0 1 .449 1 1v1h2v-1c0-1.654-1.346-3-3-3h-6c-.552 0-1-.449-1-1s.448-1 1-1h8v-2h-8c-1.654 0-3 1.346-3 3s1.346 3 3 3z"/></g></g></svg>