<svg id="Layer_5" enable-background="new 0 0 64 64" height="512" viewBox="0 0 64 64" width="512" xmlns="http://www.w3.org/2000/svg"><g><g><g><path d="m56 21v12h-4v-10c0-1.1.9-2 2-2z" fill="#ccd1d9"/></g><g><path d="m56 33v4h-6c-1.26 0-2.44.59-3.2 1.6l-1.8 2.4h-5v-3.24c0-2.63 2.13-4.76 4.76-4.76h7.24z" fill="#ccd1d9"/></g><g><path d="m26.45 27c1.41 0 2.55 1.14 2.55 2.55 0 .3-.05.59-.15.87l-.25.69-3.6 9.89h-5l5-14z" fill="#aab2bd"/></g><g><path d="m16 20v7.33l-8 1.34v-8.67z" fill="#cf9e76"/></g><g><path d="m18 27v14.54c-.3.17-.58.39-.83.63-.72.73-1.17 1.73-1.17 2.83v8h-10v-24l2-.33 8-1.34z" fill="#ecc19c"/></g><g><path d="m62 11v2h-2-4-26-2v-2c0-2.21 1.79-4 4-4h26c2.21 0 4 1.79 4 4z" fill="#fcd770"/></g><g><path d="m60 13v24h-4v-4-12-8z" fill="#ffc729"/></g><g><path d="m62 49c0-4.42-3.58-8-8-8s-8 3.58-8 8c0 .69.09 1.36.25 2h-14.25c0-3.31-2.69-6-6-6s-6 2.69-6 6c0 .7.12 1.37.35 2h-4.35v-8c0-1.1.45-2.1 1.17-2.83.25-.24.53-.46.83-.63.59-.34 1.27-.54 2-.54h5 15 5l1.8-2.4c.76-1.01 1.94-1.6 3.2-1.6h6 4c1.1 0 2 .9 2 2z" fill="#fcd770"/></g><g><path d="m26 57h-24v-1c0-1.66 1.34-3 3-3h1 10 4.35c.81 2.33 3.04 4 5.65 4z" fill="#ccd1d9"/></g><g><path d="m54 41c4.42 0 8 3.58 8 8s-3.58 8-8 8c-3.73 0-6.86-2.55-7.75-6-.16-.64-.25-1.31-.25-2 0-4.42 3.58-8 8-8z" fill="#969faa"/></g><g><path d="m26 45c3.31 0 6 2.69 6 6s-2.69 6-6 6c-2.61 0-4.84-1.67-5.65-4-.23-.63-.35-1.3-.35-2 0-3.31 2.69-6 6-6z" fill="#969faa"/></g><g><circle cx="54" cy="49" fill="#ccd1d9" r="4"/></g><g><circle cx="26" cy="51" fill="#ccd1d9" r="2"/></g></g><g><path d="m54 44c-2.757 0-5 2.243-5 5s2.243 5 5 5 5-2.243 5-5-2.243-5-5-5zm0 8c-1.654 0-3-1.346-3-3s1.346-3 3-3 3 1.346 3 3-1.346 3-3 3z"/><path d="m26 48c-1.654 0-3 1.346-3 3s1.346 3 3 3 3-1.346 3-3-1.346-3-3-3zm0 4c-.552 0-1-.449-1-1s.448-1 1-1 1 .449 1 1-.448 1-1 1z"/><path d="m63 14v-3c0-2.757-2.243-5-5-5h-26c-2.757 0-5 2.243-5 5v3h1.581l-9.305 26.052c-.095.014-.183.047-.276.066v-14.299l-2 .333v-7.152h-10v8.819l-2 .333v23.848c-2.206 0-4 1.794-4 4v2h25c3.519 0 6.432-2.613 6.92-6h12.605c1.239 3.49 4.565 6 8.475 6 4.963 0 9-4.038 9-9v-10c0-1.302-.839-2.402-2-2.816v-22.184zm-34-3c0-1.654 1.346-3 3-3h26c1.654 0 3 1.346 3 3v1h-32zm21 25c-1.565 0-3.061.748-4 2l-1.5 2h-3.5v-2.242c0-2.072 1.686-3.758 3.758-3.758h10.242v2zm5-4h-2v-9c0-.551.448-1 1-1h1zm0-18v6h-1c-1.654 0-3 1.346-3 3v9h-6.242c-3.175 0-5.758 2.583-5.758 5.758v2.242h-12.573l3.003-8.259 7.315-5.32 1.422 2.134 1.664-1.109-4-6-1.664 1.109 1.468 2.201-5.701 4.146c-.306-1.648-1.749-2.902-3.485-2.902h-.03l4.285-12zm-33.581 26 4.285-12h.744c.857 0 1.552.696 1.552 1.551 0 .182-.031.36-.093.53l-3.607 9.919zm-12.419-19h6v5.486l-6 1zm-2 8.847 10-1.667v12.837c-1.21.914-2 2.354-2 3.983v-1h-2v2h2v2h-2v2h2v2h-8zm-4 26.153c0-1.103.897-2 2-2h14.685c.357.749.839 1.426 1.425 2zm23 0c-2.757 0-5-2.243-5-5s2.243-5 5-5 5 2.243 5 5-2.243 5-5 5zm28 0c-3.859 0-7-3.14-7-7s3.141-7 7-7 7 3.14 7 7-3.141 7-7 7zm0-16c-4.963 0-9 4.038-9 9 0 .338.022.671.059 1h-12.139c-.488-3.387-3.401-6-6.92-6-3.859 0-7 3.14-7 7 0 .34.033.672.08 1h-2.08v-7c0-1.654 1.346-3 3-3h.705 24.795l2.1-2.8c.564-.751 1.461-1.2 2.4-1.2h10c.552 0 1 .449 1 1v4.356c-1.651-2.044-4.174-3.356-7-3.356zm5-4h-2v-22h2z"/><path d="m13 32h2v2h-2z"/><path d="m9 32h2v2h-2z"/><path d="m9 36h2v2h-2z"/><path d="m13 36h2v2h-2z"/><path d="m9 40h2v2h-2z"/><path d="m13 40h2v2h-2z"/><path d="m9 44h2v2h-2z"/><path d="m9 48h2v2h-2z"/></g></g></svg>