<svg id="Layer_5" enable-background="new 0 0 64 64" height="512" viewBox="0 0 64 64" width="512" xmlns="http://www.w3.org/2000/svg"><g><g><g><path d="m28 46v2c0 4.42-3.58 8-8 8-.33 0-.67-.02-.99-.06-1.81-.23-3.44-1.06-4.67-2.28-1.44-1.45-2.34-3.45-2.34-5.66v-2z" fill="#aab2bd"/></g><g><path d="m29 42c1.1 0 2 .9 2 2 0 .55-.22 1.05-.59 1.41-.36.37-.86.59-1.41.59h-1-16-1c-1.1 0-2-.9-2-2 0-.55.22-1.05.59-1.41.36-.37.86-.59 1.41-.59h1 16z" fill="#ccd1d9"/></g><g><path d="m34 30.8v-14.8h-2-4-4-2v12h-4v-12h-2v-4h-8v4h-2v14.8c-1.28-1.56-2.27-3.32-2.95-5.18-.69-1.91-1.05-3.94-1.05-6 0-9.73 7.89-17.62 17.62-17.62h.76c4.86 0 9.27 1.97 12.46 5.16s5.16 7.6 5.16 12.46c0 2.86-.7 5.65-2 8.15v.01c-.56 1.07-1.23 2.08-2 3.02z" fill="#ffeaa7"/></g><g><path d="m34 16v14.8c-.03.03-.05.07-.08.1l-3.36 4.03c-1.65 1.98-2.56 4.49-2.56 7.07v-14h-6v-12h2 4 4z" fill="#e6e9ed"/></g><g><path d="m8 12h8v4h-8z" fill="#aab2bd"/></g><g><path d="m9.44 34.93-3.36-4.03c-.03-.03-.05-.07-.08-.1v-14.8h2 8 2v12h-6v14c0-2.58-.91-5.09-2.56-7.07z" fill="#ccd1d9"/></g><g><path d="m22 28h6v14h-16v-14h6z" fill="#cf9e76"/></g><g><path d="m60 45v5h-14v-5c0-1.94.78-3.68 2.05-4.95s3.01-2.05 4.95-2.05c3.87 0 7 3.13 7 7z" fill="#a0d468"/></g><g><path d="m60 50c1.1 0 2 .9 2 2 0 .55-.22 1.05-.59 1.41-.36.37-.86.59-1.41.59h-4-6-4c-1.1 0-2-.9-2-2 0-.55.22-1.05.59-1.41.36-.37.86-.59 1.41-.59z" fill="#b4dd7f"/></g><g><path d="m60 54v6c0 1.1-.9 2-2 2-.55 0-1.05-.22-1.41-.59-.37-.36-.59-.86-.59-1.41v-6z" fill="#e6e9ed"/></g><g><path d="m50 54v6c0 1.1-.9 2-2 2-.55 0-1.05-.22-1.41-.59-.37-.36-.59-.86-.59-1.41v-6z" fill="#e6e9ed"/></g></g><g><path d="m63 52c0-1.302-.839-2.402-2-2.816v-4.184c0-4.072-3.06-7.436-7-7.931v-11.069c0-3.86-3.141-7-7-7h-8.031c-.332-9.979-8.531-18-18.589-18h-.76c-10.267 0-18.62 8.353-18.62 18.621 0 4.347 1.532 8.581 4.315 11.92l3.355 4.026c1.289 1.546 2.076 3.448 2.275 5.438-1.628.03-2.945 1.359-2.945 2.995 0 1.654 1.346 3 3 3v1c0 4.274 2.998 7.855 7 8.768v1.232c0 2.757 2.243 5 5 5h9c2.757 0 5-2.243 5-5v-30.023c1.09-2.171 1.757-4.539 1.939-6.977h8.061c2.757 0 5 2.243 5 5v11.069c-3.94.495-7 3.859-7 7.931v4.184c-1.161.414-2 1.514-2 2.816s.839 2.402 2 2.816v5.184c0 1.654 1.346 3 3 3s3-1.346 3-3v-5h4v5c0 1.654 1.346 3 3 3s3-1.346 3-3v-5.184c1.161-.414 2-1.514 2-2.816zm-56-21.562v-13.438h10v10h-6v8.369c-.245-.372-.504-.737-.792-1.082zm8-15.438h-6v-2h6zm18 2v13.438l-3.208 3.849c-.288.345-.547.709-.792 1.082v-8.369h-6v-10zm-6 12v12h-14v-12zm-17 15c0-.551.448-1 1-1h18c.552 0 1 .449 1 1s-.448 1-1 1h-18c-.552 0-1-.449-1-1zm3 4v-1h14v1c0 3.86-3.141 7-7 7s-7-3.14-7-7zm22 10c0 1.654-1.346 3-3 3h-9c-1.654 0-3-1.346-3-3v-1c4.963 0 9-4.038 9-9v-1c1.654 0 3-1.346 3-3 0-1.636-1.317-2.965-2.946-2.995.199-1.99.987-3.892 2.275-5.438l3.355-4.026c.111-.134.208-.278.315-.414v26.873zm0-30.506v-12.494h-2v-4h-2v4h-2v-6h-2v6h-2v-4h-2v4h-2v12h-2v-12h-2v-4h-10v4h-2v12.494c-1.295-2.408-2-5.112-2-7.874 0-9.164 7.456-16.62 16.62-16.62h.76c9.164 0 16.62 7.456 16.62 16.621 0 2.761-.705 5.466-2 7.873zm18 11.506c3.309 0 6 2.691 6 6v4h-12v-4c0-3.309 2.691-6 6-6zm-4 21c0 .551-.448 1-1 1s-1-.449-1-1v-5h2zm9 1c-.552 0-1-.449-1-1v-5h2v5c0 .551-.448 1-1 1zm2-8h-14c-.552 0-1-.449-1-1s.448-1 1-1h14c.552 0 1 .449 1 1s-.448 1-1 1z"/><path d="m29 19h2v2h-2z"/><path d="m25 19h2v2h-2z"/><path d="m29 23h2v2h-2z"/><path d="m25 23h2v2h-2z"/><path d="m13 19h2v2h-2z"/><path d="m9 19h2v2h-2z"/><path d="m9 23h2v2h-2z"/><path d="m13 23h2v2h-2z"/><path d="m19 35h2v2h-2z"/><path d="m19 31h2v2h-2z"/><path d="m15 31h2v2h-2z"/><path d="m15 35h2v2h-2z"/><path d="m23 35h2v2h-2z"/><path d="m23 31h2v2h-2z"/></g></g></svg>